<svg width="15" height="18" viewBox="0 0 15 18" fill="none" xmlns="http://www.w3.org/2000/svg">
<path d="M7.541 4.15385C8.35347 4.15385 9.3719 3.60458 9.97838 2.87222C10.5277 2.20852 10.9282 1.28163 10.9282 0.354736C10.9282 0.228862 10.9167 0.102988 10.8938 0C9.98983 0.0343293 8.90273 0.606485 8.25048 1.37317C7.73554 1.95677 7.26637 2.87222 7.26637 3.81055C7.26637 3.94787 7.28926 4.08519 7.3007 4.13096C7.35791 4.1424 7.44946 4.15385 7.541 4.15385ZM4.68023 18C5.79021 18 6.28226 17.2562 7.66688 17.2562C9.07438 17.2562 9.38334 17.9771 10.6192 17.9771C11.8322 17.9771 12.6446 16.8557 13.4113 15.7572C14.2695 14.4984 14.6243 13.2626 14.6472 13.2053C14.5671 13.1825 12.2441 12.2327 12.2441 9.56643C12.2441 7.25493 14.075 6.2136 14.178 6.1335C12.965 4.39415 11.1227 4.34838 10.6192 4.34838C9.25747 4.34838 8.14749 5.17228 7.44946 5.17228C6.69421 5.17228 5.69867 4.39415 4.52003 4.39415C2.27718 4.39415 0 6.24793 0 9.74952C0 11.9237 0.846789 14.2238 1.88811 15.7114C2.78067 16.9701 3.5588 18 4.68023 18Z" fill="white"/>
</svg>
