<svg width="276" height="250" viewBox="0 0 276 250" fill="none" xmlns="http://www.w3.org/2000/svg">
<g clip-path="url(#clip0_180_48)">
<path d="M132.281 50.0942C135.345 46.9762 139.437 46.0297 141.421 47.9799C143.405 49.9301 142.53 54.038 139.464 57.1567C138.257 58.4193 136.765 59.3744 135.112 59.942L121.964 72.9893L115.972 66.6885L129.571 54.4951C130.11 52.8328 131.039 51.3237 132.281 50.0942Z" fill="#FFB6B6"/>
<path d="M90.2297 39.3244L104.016 69.9082L126.03 57.9919L133.909 62.1733C133.909 62.1733 115.913 92.2599 103.59 88.8349C91.2684 85.4099 69.3876 54.3547 73.33 44.7701C77.2724 35.1856 90.2297 39.3244 90.2297 39.3244Z" fill="#E6E6E6"/>
<path d="M154.136 56.5881C150.936 53.6103 149.878 49.5453 151.773 47.5088C153.669 45.4724 157.799 46.2359 161 49.2152C162.295 50.3877 163.291 51.8534 163.903 53.4895L177.304 66.2777L171.169 72.4384L158.609 59.1774C156.933 58.6839 155.399 57.7961 154.136 56.5881Z" fill="#A0616A"/>
<path d="M221.639 58.5595L195.773 86.0982C195.773 86.0982 189.964 91.8455 180.407 83.5572C170.851 75.2689 160.226 61.6709 160.226 61.6709L166.186 55.1836L176.745 64.6032C176.745 64.6032 183.013 67.1255 183.449 68.7576C183.885 70.3896 182.666 71.0647 184.625 70.5417C186.583 70.0187 186.621 68.8521 186.744 70.6214C186.867 72.3908 185.671 74.4586 187.933 72.4557C190.196 70.4527 190.871 71.6712 190.871 71.6712L207.403 49.7723C207.403 49.7723 218.086 41.3247 221.157 48.897C224.228 56.4694 221.639 58.5595 221.639 58.5595Z" fill="#0A1D56"/>
<path d="M84.1846 243.153L94.237 243.152L99.0189 204.378L84.1826 204.379L84.1846 243.153Z" fill="#FFB6B6"/>
<path d="M118.625 242.925C118.938 243.452 119.103 245.154 119.103 245.767C119.103 247.651 117.576 249.178 115.692 249.178H84.5606C83.2752 249.178 82.2331 248.136 82.2331 246.851V245.555C82.2331 245.555 80.693 241.659 83.8637 236.858C83.8637 236.858 87.8043 240.618 93.6927 234.729L95.4291 231.583L107.998 240.776L114.965 241.634C116.49 241.821 117.841 241.605 118.625 242.925Z" fill="#2F2E41"/>
<path d="M200.042 64.2227H224.954V27.4125H200.042V64.2227Z" fill="#2F2E41"/>
<path d="M219.362 52.9986L218.49 42.4556H206.89L204.318 53.6257L219.362 52.9986Z" fill="#A0616A"/>
<path opacity="0.1" d="M219.362 52.9986L218.49 42.4556H206.89L204.318 53.6257L219.362 52.9986Z" fill="black"/>
<path d="M91.7912 41.2871L91.9946 27.7288L83.6336 22.5168L74.542 33.6378L91.7912 41.2871Z" fill="#FFB6B6"/>
<path opacity="0.1" d="M91.7912 41.2871L92.3324 28.0666L83.6335 22.5168L86.589 38.8777L91.7912 41.2871Z" fill="black"/>
<path d="M210.863 45.8103C217.866 45.8103 223.543 40.1333 223.543 33.1304C223.543 26.1274 217.866 20.4504 210.863 20.4504C203.86 20.4504 198.183 26.1274 198.183 33.1304C198.183 40.1333 203.86 45.8103 210.863 45.8103Z" fill="#A0616A"/>
<path d="M207.665 19.7902C207.665 19.7902 207.665 14.5847 212.498 15.7002C217.332 16.8156 218.819 18.6747 218.819 18.6747C218.819 18.6747 220.678 21.6493 223.653 22.0211C226.627 22.3929 229.23 30.9447 228.858 32.8038C228.486 34.6629 226.627 39.4966 229.23 41.7275C231.833 43.9584 235.551 47.3048 234.436 50.6512C233.32 53.9975 229.974 62.5494 229.974 62.5494C229.974 62.5494 239.307 63.9137 238.545 69.7384C238.545 69.7384 234.064 66.2676 228.115 66.2676C222.165 66.2676 222.909 55.4746 222.909 55.4746C222.909 55.4746 222.537 48.7921 221.422 46.933C220.306 45.0739 221.794 34.6629 216.216 29.0856C210.639 23.5084 207.665 19.7902 207.665 19.7902Z" fill="#2F2E41"/>
<path d="M209.152 18.6748C209.152 18.6748 202.087 20.1621 199.484 27.2267C196.882 34.2912 198.196 35.6058 198.196 35.6058C198.196 35.6058 197.621 39.8597 194.463 41.3514C191.304 42.8431 193.907 49.164 193.907 49.164C193.907 49.164 193.164 55.4849 183.124 57.7158C173.085 59.9468 195.714 77.0546 195.714 77.0546C195.714 77.0546 194.087 68.9802 204.498 68.6084C214.909 68.2365 202.459 49.164 202.459 49.164L201.344 36.894C201.344 36.894 203.574 22.7648 210.267 20.9057C216.96 19.0466 209.152 18.6748 209.152 18.6748Z" fill="#2F2E41"/>
<path d="M91.8173 31.9478C100.03 31.9478 106.687 25.2904 106.687 17.0782C106.687 8.86587 100.03 2.2085 91.8173 2.2085C83.605 2.2085 76.9476 8.86587 76.9476 17.0782C76.9476 25.2904 83.605 31.9478 91.8173 31.9478Z" fill="#FFB6B6"/>
<path d="M112.096 130.941L98.2447 225.2H80.8659L83.1768 171.395L84.393 143.104L80.8659 129.637C80.8659 129.637 79.2577 126.644 77.9029 123.015C76.3759 118.92 75.1698 114.012 76.9604 111.684C77.6192 110.826 79.3321 110.191 81.6598 109.718C83.0821 109.427 84.7376 109.201 86.5248 109.025C96.8021 108.008 111.421 108.643 111.421 108.643L111.792 120.907L111.999 127.755L112.096 130.941Z" fill="#2F2E41"/>
<path d="M26.9501 228.135L35.8057 232.892L58.3692 200.999L45.2992 193.978L26.9501 228.135Z" fill="#FFB6B6"/>
<path d="M57.3971 244.235C57.4233 244.847 56.7636 246.424 56.4735 246.964C55.5817 248.624 53.5131 249.247 51.8532 248.355L24.4297 233.621C23.2973 233.013 22.8725 231.601 23.4809 230.469L24.0943 229.327C24.0943 229.327 24.5813 225.167 29.6467 222.438C29.6467 222.438 31.3388 227.615 39.3128 225.215L42.3312 223.265L49.0529 237.312L54.7844 241.365C56.0383 242.251 57.3314 242.7 57.3971 244.235Z" fill="#2F2E41"/>
<path d="M111.999 127.755L104.647 142.496L83.1768 171.395L47.8312 218.974L32.5233 210.751L74.4839 140.1L77.7543 126.566C77.7543 126.566 77.7543 125.103 77.903 123.015C78.1935 118.883 79.0652 112.299 81.6598 109.718C82.0112 109.366 82.393 109.089 82.8085 108.903C83.5889 108.552 84.8863 108.636 86.5248 109.025C93.3696 110.66 106.144 117.684 111.792 120.907L111.999 127.755Z" fill="#2F2E41"/>
<path d="M218.418 244.336L209.775 244.335L205.663 210.997L218.419 210.997L218.418 244.336Z" fill="#A0616A"/>
<path d="M188.805 244.14C188.536 244.593 188.394 246.056 188.394 246.583C188.394 248.203 189.708 249.516 191.328 249.516H218.094C219.2 249.516 220.096 248.62 220.096 247.515V246.401C220.096 246.401 221.42 243.051 218.694 238.923C218.694 238.923 215.305 242.156 210.243 237.093L208.75 234.388L197.942 242.292L191.952 243.029C190.641 243.19 189.479 243.004 188.805 244.14Z" fill="#2F2E41"/>
<path d="M252.466 234.15L244.477 237.446L227.959 208.197L239.751 203.332L252.466 234.15Z" fill="#A0616A"/>
<path d="M225.018 245.264C224.942 245.786 225.369 247.193 225.57 247.68C226.188 249.177 227.903 249.891 229.401 249.273L254.144 239.062C255.165 238.641 255.652 237.471 255.23 236.449L254.805 235.419C254.805 235.419 254.752 231.818 250.657 229.042C250.657 229.042 248.758 233.322 242.147 230.573L239.735 228.643L232.76 240.071L227.503 243.038C226.354 243.687 225.208 243.958 225.018 245.264Z" fill="#2F2E41"/>
<path d="M222.383 129.975L218.856 143.441L219.795 165.293L221.353 201.588L221.397 202.612L221.572 206.693L222.383 225.538H205.004L197.268 172.892L191.153 131.279L191.795 110.089L191.828 108.981C191.828 108.981 222.91 107.63 226.289 112.022C229.667 116.414 222.383 129.975 222.383 129.975Z" fill="#2F2E41"/>
<path d="M246.563 211.991L243.617 213.514L232.721 219.153L231.127 219.977L221.572 206.693L197.268 172.892L191.153 131.279L191.795 110.089C194.545 109.214 196.744 108.856 197.859 109.376C202.879 111.724 202.64 127.117 202.64 127.117L205.697 140.698L219.795 165.293L246.563 211.991Z" fill="#2F2E41"/>
<path d="M76.4536 30.7693L93.3459 38.8776C93.3459 38.8776 111.252 91.9196 111.252 94.6224C111.252 97.3252 116.32 99.0144 113.279 102.055C110.238 105.096 118.938 107.671 114.25 110.1C109.563 112.528 80.3189 125.813 77.0671 124.615C68.0986 121.311 77.4472 109.17 77.4472 109.17C77.4472 109.17 70.7102 103.744 71.7237 101.042C72.7372 98.3387 65.6425 46.6481 65.6425 46.6481L76.4536 30.7693Z" fill="#E6E6E6"/>
<path d="M90.9093 20.6397L92.8219 24.4648C92.8219 24.4648 94.7344 17.5797 97.7945 16.0496C100.855 14.5196 101.237 12.2246 101.237 12.2246C101.237 12.2246 105.062 17.1972 107.74 16.0496C110.417 14.9021 111.565 14.1371 108.505 9.54699C105.445 4.95689 106.21 7.25194 106.21 7.25194C106.21 7.25194 103.532 3.42685 103.915 4.57438C104.297 5.7219 101.62 1.51431 101.62 2.66183C101.62 3.80936 99.707 0.366778 99.707 1.51431C99.707 2.66183 91.6743 -1.16325 92.8219 0.366783C93.9694 1.89682 85.9367 -2.69329 82.1116 3.42685C78.2865 9.54699 72.9826 8.41519 74.8696 12.2324C76.7565 16.0496 75.9915 26.3774 75.9915 26.3774H81.2668C81.2668 26.3774 86.7017 16.0496 90.9093 20.6397Z" fill="#2F2E41"/>
<path d="M203.484 53.0673L203.794 52.9799L219.025 48.6753L231.188 65.2298L223.079 99.6902L226.12 113.542C226.12 113.542 201.457 107.123 191.66 112.528C191.66 112.528 190.984 109.448 191.66 107.948C192.335 106.447 193.349 100.204 192.335 97.4131C191.322 94.6225 194.362 81.4465 194.362 81.4465C194.362 81.4465 193.349 72.6624 197.741 68.2704C202.133 63.8784 203.484 53.0673 203.484 53.0673Z" fill="#0A1D56"/>
<path d="M189.651 115.292L136.129 88.6936C135.862 88.5613 135.63 88.379 135.437 88.152L127.086 78.3097C126.532 77.657 126.412 76.7358 126.781 75.963L142.44 43.1093C142.714 42.5336 143.225 42.1085 143.841 41.9428C144.458 41.7775 145.112 41.8896 145.638 42.2503L183.384 68.142C184.159 68.6733 184.505 69.6371 184.246 70.5401L176.582 97.2089C176.373 97.9384 176.64 98.7343 177.247 99.1896L192.407 110.56C193.223 111.172 193.506 112.289 193.078 113.215L192.598 114.255C192.35 114.794 191.904 115.199 191.344 115.396C191.107 115.48 190.862 115.522 190.618 115.522C190.287 115.521 189.957 115.445 189.651 115.292Z" fill="#0A1D56"/>
<path d="M189.224 108.819L174.325 96.4233C174.196 96.3152 174.095 96.1835 174.024 96.0382C173.889 95.7645 173.862 95.4368 173.963 95.1361L182.453 70.2942C182.673 69.6523 182.436 68.9361 181.876 68.5509L146.503 44.334C146.141 44.084 145.689 44.0063 145.263 44.1178C144.834 44.2293 144.479 44.5199 144.283 44.9151L129.371 75.1964C129.144 75.6525 129.161 76.1761 129.411 76.612C129.442 76.6728 129.479 76.7302 129.523 76.7843L137.023 86.6832C137.168 86.8724 137.357 87.0278 137.57 87.1325L187.592 111.353C187.801 111.454 188.028 111.505 188.254 111.505C188.646 111.505 189.038 111.353 189.328 111.059C189.362 111.022 189.396 110.988 189.43 110.947C189.666 110.66 189.788 110.292 189.771 109.917C189.751 109.491 189.551 109.093 189.224 108.819Z" fill="#F2F2F2"/>
<path d="M135.239 73.3382C135.362 73.3382 135.481 73.2703 135.541 73.1523L147.666 49.0632C147.75 48.8964 147.683 48.6934 147.516 48.6096C147.349 48.5253 147.146 48.5927 147.063 48.7594L134.937 72.8485C134.853 73.0152 134.92 73.2183 135.087 73.3021C135.136 73.3267 135.188 73.3382 135.239 73.3382Z" fill="#0A1D56"/>
<path d="M141.658 77.3922C141.782 77.3922 141.9 77.3243 141.96 77.2063L154.085 53.1172C154.169 52.9504 154.102 52.7474 153.935 52.6636C153.768 52.5791 153.565 52.6469 153.482 52.8134L141.356 76.9025C141.272 77.0692 141.34 77.2723 141.506 77.3561C141.555 77.3807 141.607 77.3922 141.658 77.3922Z" fill="#0A1D56"/>
<path d="M147.063 80.7709C147.187 80.7709 147.306 80.7029 147.365 80.5849L159.491 56.4958C159.575 56.3291 159.507 56.126 159.341 56.0422C159.174 55.9579 158.971 56.0254 158.887 56.192L146.762 80.2811C146.678 80.4479 146.745 80.6509 146.912 80.7347C146.961 80.7593 147.012 80.7709 147.063 80.7709Z" fill="#0A1D56"/>
<path d="M127.926 77.5076C132.119 76.269 136.156 77.4282 136.944 80.0964C137.732 82.7645 134.972 85.9307 130.778 87.1691C129.109 87.6868 127.341 87.7974 125.621 87.4916L107.791 92.5151L105.612 84.0981L123.42 80.0394C124.699 78.8477 126.244 77.9796 127.926 77.5076Z" fill="#FFB6B6"/>
<path d="M96.3908 47.6779L93.5963 81.1087L118.628 81.3779L123.486 88.8583C123.486 88.8583 93.1463 106.425 84.0363 97.4491C74.9263 88.4729 70.8728 50.7004 78.9724 44.2348C87.0719 37.7693 96.3908 47.6779 96.3908 47.6779Z" fill="#E6E6E6"/>
<path d="M178.389 108.039C174.03 107.71 170.666 105.195 170.875 102.421C171.085 99.6469 174.788 97.6649 179.148 97.994C180.892 98.1015 182.585 98.625 184.084 99.5208L202.537 101.145L201.59 109.788L183.5 107.269C181.882 107.93 180.129 108.194 178.389 108.039Z" fill="#A0616A"/>
<path d="M232.353 67.4383L229.338 105.099C229.338 105.099 228.388 113.215 215.748 112.707C203.108 112.198 186.319 108.208 186.319 108.208L186.926 99.4188L201.054 100.186C201.054 100.186 207.526 98.2434 208.885 99.2463C210.244 100.249 209.714 101.537 210.917 99.906C212.121 98.2748 211.422 97.3396 212.623 98.6452C213.823 99.9507 214.18 102.313 214.697 99.3357C215.214 96.3585 216.502 96.889 216.502 96.889L215.746 69.4609C215.746 69.4609 218.818 56.1927 225.944 60.191C233.071 64.1893 232.353 67.4383 232.353 67.4383Z" fill="#0A1D56"/>
</g>
<defs>
<clipPath id="clip0_180_48">
<rect width="275.211" height="250" fill="white"/>
</clipPath>
</defs>
</svg>
