<svg width="18" height="17" viewBox="0 0 18 17" fill="none" xmlns="http://www.w3.org/2000/svg">
<circle cx="9" cy="8.5" r="7.5" stroke="#0A1D56" stroke-width="1.5"/>
<path d="M13 8.5C13 12.6421 11.2091 16 9 16C6.79086 16 5 12.6421 5 8.5C5 4.35786 6.79086 1 9 1C11.2091 1 13 4.35786 13 8.5Z" stroke="#0A1D56" stroke-width="1.5"/>
<path d="M9 1V16" stroke="#0A1D56" stroke-width="1.5"/>
<path d="M1.5 8.5H16.5" stroke="#0A1D56" stroke-width="1.5"/>
<path d="M3 13.5C4.36834 12.5287 6.5466 11.9004 9 11.9004C11.4534 11.9004 13.6317 12.5287 15 13.5" stroke="#0A1D56" stroke-width="1.5"/>
<path d="M3 3.5C4.36834 4.47134 6.5466 5.09961 9 5.09961C11.4534 5.09961 13.6317 4.47134 15 3.5" stroke="#0A1D56" stroke-width="1.5"/>
<path d="M1 8.5C1 4.08172 4.58172 0.5 9 0.5C13.4183 0.5 17 4.08172 17 8.5C17 12.9183 13.4183 16.5 9 16.5C4.58172 16.5 1 12.9183 1 8.5ZM8.5 1.57655C7.83057 1.78128 7.16462 2.39722 6.61275 3.43199C6.46962 3.70034 6.33735 3.99184 6.21771 4.30361C6.92288 4.4609 7.69049 4.56112 8.5 4.59055V1.57655ZM5.24852 4.03944C5.39143 3.65535 5.55268 3.29462 5.73039 2.9614C5.90911 2.6263 6.10862 2.31241 6.32726 2.02835C5.46954 2.38297 4.69766 2.90315 4.05145 3.54904C4.41294 3.73288 4.8141 3.89777 5.24852 4.03944ZM4.50845 7.99999C4.54474 6.92999 4.69684 5.91263 4.94483 4.99229C4.37532 4.80701 3.84978 4.58302 3.38046 4.32544C2.6064 5.36573 2.11439 6.6283 2.01758 7.99999H4.50845ZM5.90869 5.25884C5.68622 6.08644 5.54496 7.01299 5.50906 7.99999H8.5V5.59114C7.5902 5.56026 6.71707 5.44558 5.90869 5.25884ZM9.5 5.59114V7.99999H12.4909C12.455 7.01299 12.3138 6.08644 12.0913 5.25884C11.2829 5.44558 10.4098 5.56026 9.5 5.59114ZM5.50906 8.99999C5.54496 9.987 5.68622 10.9135 5.90869 11.7411C6.71707 11.5544 7.5902 11.4397 8.5 11.4088V8.99999H5.50906ZM9.5 8.99999V11.4088C10.4098 11.4397 11.2829 11.5544 12.0913 11.7411C12.3138 10.9135 12.455 9.987 12.4909 8.99999H9.5ZM6.21771 12.6964C6.33735 13.0081 6.46962 13.2996 6.61275 13.568C7.16462 14.6028 7.83057 15.2187 8.5 15.4234V12.4094C7.69049 12.4389 6.92288 12.5391 6.21771 12.6964ZM6.32726 14.9716C6.10863 14.6876 5.90911 14.3737 5.73039 14.0386C5.55268 13.7054 5.39143 13.3446 5.24852 12.9605C4.8141 13.1022 4.41294 13.2671 4.05145 13.4509C4.69766 14.0968 5.46954 14.617 6.32726 14.9716ZM4.94483 12.0077C4.69684 11.0874 4.54474 10.07 4.50845 8.99999H2.01758C2.11439 10.3717 2.6064 11.6343 3.38046 12.6745C3.84978 12.417 4.37532 12.193 4.94483 12.0077ZM11.6727 14.9716C12.5305 14.617 13.3023 14.0968 13.9485 13.4509C13.5871 13.2671 13.1859 13.1022 12.7515 12.9605C12.6086 13.3446 12.4473 13.7054 12.2696 14.0386C12.0909 14.3737 11.8914 14.6876 11.6727 14.9716ZM9.5 12.4094V15.4234C10.1694 15.2187 10.8354 14.6028 11.3872 13.568C11.5304 13.2996 11.6626 13.0081 11.7823 12.6964C11.0771 12.5391 10.3095 12.4389 9.5 12.4094ZM13.0552 12.0077C13.6247 12.193 14.1502 12.417 14.6195 12.6745C15.3936 11.6343 15.8856 10.3717 15.9824 8.99999H13.4915C13.4552 10.07 13.3032 11.0874 13.0552 12.0077ZM15.9824 7.99999C15.8856 6.6283 15.3936 5.36572 14.6195 4.32544C14.1502 4.58302 13.6247 4.80701 13.0552 4.99229C13.3032 5.91263 13.4552 6.92999 13.4915 7.99999H15.9824ZM12.2696 2.9614C12.4473 3.29462 12.6086 3.65535 12.7515 4.03944C13.1859 3.89777 13.5871 3.73288 13.9485 3.54904C13.3023 2.90315 12.5305 2.38297 11.6727 2.02835C11.8914 2.31241 12.0909 2.6263 12.2696 2.9614ZM11.7823 4.30361C11.6626 3.99184 11.5304 3.70034 11.3872 3.43199C10.8354 2.39722 10.1694 1.78128 9.5 1.57655V4.59055C10.3095 4.56112 11.0771 4.4609 11.7823 4.30361Z" fill="#0A1D56"/>
</svg>
